ground reactions
version=1
nRows=55
nColumns=19
inDegrees=no
endheader
time	ground_force_l_vx	ground_force_l_vy	ground_force_l_vz	ground_force_l_px	ground_force_l_py	ground_force_l_pz	ground_torque_l_x	ground_torque_l_y	ground_torque_l_z	ground_force_r_vx	ground_force_r_vy	ground_force_r_vz	ground_force_r_px	ground_force_r_py	ground_force_r_pz	ground_torque_r_x	ground_torque_r_y	ground_torque_r_z
3.958333	-0.000000	0.000000	-0.000000	-0.000000	-0.000000	0.000000	0.000000	-0.000000	0.000000	14.391048	563.837938	-27.249733	0.663017	0.000000	-0.399969	0.000000	2.842253	0.000000
3.959375	-0.000000	0.000000	-0.000000	-0.000000	-0.000000	0.000000	0.000000	-0.000000	0.000000	15.030956	564.458202	-27.358561	0.661778	0.000000	-0.399974	0.000000	2.859620	0.000000
3.960417	-0.000000	0.000001	-0.000000	-0.000000	-0.000000	0.000000	0.000000	-0.000000	0.000000	15.673992	565.087619	-27.466541	0.660539	0.000000	-0.399980	0.000000	2.876771	0.000000
3.961458	-0.000000	0.000001	-0.000000	-0.000000	-0.000000	0.000000	0.000000	-0.000000	0.000000	16.319929	565.726897	-27.573444	0.659300	0.000000	-0.399987	0.000000	2.893647	0.000000
3.962500	-0.000000	0.000001	-0.000000	-0.000000	-0.000000	0.000000	0.000000	-0.000000	0.000000	16.968534	566.376728	-27.679065	0.658063	0.000000	-0.399995	0.000000	2.910187	0.000000
3.963542	-0.000000	0.000001	-0.000000	-0.000000	-0.000000	0.000000	0.000000	-0.000000	0.000000	17.619569	567.037779	-27.783225	0.656826	0.000000	-0.400003	0.000000	2.926332	0.000000
3.964583	-0.000000	0.000001	-0.000000	-0.000000	-0.000000	0.000000	0.000000	-0.000000	0.000000	18.272798	567.710685	-27.885775	0.655591	0.000000	-0.400011	0.000000	2.942021	0.000000
3.965625	-0.000000	0.000001	-0.000000	-0.000000	-0.000000	0.000000	0.000000	-0.000000	0.000000	18.927988	568.396049	-27.986593	0.654358	0.000000	-0.400019	0.000000	2.957193	0.000000
3.966667	-0.000000	0.000001	-0.000000	0.000000	0.000000	-0.000000	0.000000	-0.000000	0.000000	19.584917	569.094427	-28.085586	0.653126	0.000000	-0.400027	0.000000	2.971790	0.000000
3.967708	-0.000000	0.000002	-0.000000	0.000000	0.000000	-0.000000	0.000000	-0.000000	0.000000	20.243371	569.806329	-28.182686	0.651896	0.000000	-0.400034	0.000000	2.985754	0.000000
3.968750	-0.000000	0.000002	-0.000000	0.000000	0.000000	-0.000000	0.000000	-0.000000	0.000000	20.903157	570.532212	-28.277852	0.650668	0.000000	-0.400039	0.000000	2.999029	0.000000
3.969792	-0.000000	0.000002	-0.000000	0.000001	0.000000	-0.000000	0.000000	-0.000000	0.000000	21.564101	571.272471	-28.371067	0.649442	0.000000	-0.400044	0.000000	3.011565	0.000000
3.970833	-0.000000	0.000003	-0.000000	0.000001	0.000000	-0.000000	0.000000	-0.000000	0.000000	22.226050	572.027440	-28.462333	0.648219	0.000000	-0.400047	0.000000	3.023312	0.000000
3.971875	-0.000000	0.000003	-0.000000	0.000001	0.000000	-0.000000	0.000000	-0.000000	0.000000	22.888882	572.797381	-28.551670	0.646997	0.000000	-0.400048	0.000000	3.034225	0.000000
3.972917	-0.000001	0.000004	-0.000000	0.000001	0.000000	-0.000000	0.000000	-0.000000	0.000000	23.552500	573.582487	-28.639112	0.645778	0.000000	-0.400048	0.000000	3.044265	0.000000
3.973958	-0.000001	0.000005	-0.000000	0.000001	0.000000	-0.000000	0.000000	-0.000000	0.000000	24.216842	574.382875	-28.724704	0.644560	0.000000	-0.400046	0.000000	3.053396	0.000000
3.975000	-0.000001	0.000006	-0.000001	0.000001	0.000000	-0.000000	0.000000	-0.000000	0.000000	24.881881	575.198585	-28.808498	0.643345	0.000000	-0.400042	0.000000	3.061589	0.000000
3.976042	-0.000001	0.000007	-0.000001	0.000000	0.000000	-0.000000	0.000000	-0.000000	0.000000	25.547622	576.029580	-28.890548	0.642131	0.000000	-0.400036	0.000000	3.068818	0.000000
3.977083	-0.000001	0.000008	-0.000001	-0.000000	-0.000000	0.000000	0.000000	-0.000000	0.000000	26.214109	576.875745	-28.970907	0.640918	0.000000	-0.400028	0.000000	3.075065	0.000000
3.978125	-0.000002	0.000010	-0.000001	-0.000001	-0.000000	0.000000	0.000000	-0.000000	0.000000	26.881423	577.736886	-29.049625	0.639707	0.000000	-0.400019	0.000000	3.080318	0.000000
3.979167	-0.000002	0.000012	-0.000001	-0.000001	-0.000000	0.000001	0.000000	-0.000000	0.000000	27.549680	578.612733	-29.126746	0.638497	0.000000	-0.400008	0.000000	3.084571	0.000000
3.980208	-0.000002	0.000015	-0.000001	-0.000002	-0.000000	0.000001	0.000000	-0.000000	0.000000	28.219034	579.502944	-29.202299	0.637288	0.000000	-0.399997	0.000000	3.087823	0.000000
3.981250	-0.000003	0.000018	-0.000001	-0.000002	-0.000000	0.000001	0.000000	-0.000000	0.000000	28.889674	580.407106	-29.276306	0.636080	0.000000	-0.399983	0.000000	3.090080	0.000000
3.982292	-0.000003	0.000022	-0.000002	-0.000003	-0.000000	0.000001	0.000000	-0.000000	0.000000	29.561820	581.324740	-29.348771	0.634872	0.000000	-0.399970	0.000000	3.091356	0.000000
3.983333	-0.000004	0.000026	-0.000002	-0.000003	-0.000000	0.000001	0.000000	-0.000000	0.000000	30.235723	582.255306	-29.419682	0.633664	0.000000	-0.399955	0.000000	3.091668	0.000000
3.984375	-0.000005	0.000032	-0.000003	-0.000003	-0.000000	0.000001	0.000000	-0.000000	0.000000	30.911663	583.198206	-29.489013	0.632456	0.000000	-0.399941	0.000000	3.091040	0.000000
3.985417	-0.000006	0.000038	-0.000003	-0.000002	-0.000000	0.000001	0.000000	-0.000000	0.000000	31.589941	584.152794	-29.556719	0.631248	0.000000	-0.399926	0.000000	3.089502	0.000000
3.986458	-0.000007	0.000046	-0.000004	-0.000001	-0.000000	0.000001	0.000000	-0.000000	0.000000	32.270880	585.118379	-29.622738	0.630039	0.000000	-0.399912	0.000000	3.087090	0.000000
3.987500	-0.000008	0.000055	-0.000004	0.000000	0.000000	-0.000000	0.000000	-0.000001	0.000000	32.954817	586.094233	-29.686993	0.628829	0.000000	-0.399898	0.000000	3.083843	0.000000
3.988542	-0.000009	0.000065	-0.000005	0.000002	0.000000	-0.000001	0.000000	-0.000001	0.000000	33.642099	587.079597	-29.749393	0.627618	0.000000	-0.399886	0.000000	3.079805	0.000000
3.989583	-0.000011	0.000078	-0.000006	0.000004	0.000000	-0.000002	0.000000	-0.000001	0.000000	34.333079	588.073687	-29.809833	0.626406	0.000000	-0.399875	0.000000	3.075025	0.000000
3.990625	-0.000012	0.000093	-0.000007	0.000006	0.000000	-0.000003	0.000000	-0.000001	0.000000	35.028108	589.075703	-29.868198	0.625192	0.000000	-0.399865	0.000000	3.069554	0.000000
3.991667	-0.000014	0.000111	-0.000009	0.000008	0.000000	-0.000004	0.000000	-0.000001	0.000000	35.727534	590.084832	-29.924364	0.623976	0.000000	-0.399857	0.000000	3.063447	0.000000
3.992708	-0.000017	0.000132	-0.000010	0.000010	0.000000	-0.000005	0.000000	-0.000001	0.000000	36.431689	591.100256	-29.978201	0.622758	0.000000	-0.399852	0.000000	3.056761	0.000000
3.993750	-0.000020	0.000157	-0.000012	0.000011	0.000000	-0.000005	0.000000	-0.000002	0.000000	37.140893	592.121158	-30.029578	0.621539	0.000000	-0.399848	0.000000	3.049555	0.000000
3.994792	-0.000024	0.000188	-0.000015	0.000010	0.000000	-0.000005	0.000000	-0.000002	0.000000	37.855440	593.146724	-30.078359	0.620318	0.000000	-0.399847	0.000000	3.041887	0.000000
3.995833	-0.000029	0.000225	-0.000018	0.000009	0.000000	-0.000004	0.000000	-0.000003	0.000000	38.575597	594.176153	-30.124414	0.619095	0.000000	-0.399849	0.000000	3.033818	0.000000
3.996875	-0.000035	0.000269	-0.000021	0.000005	0.000000	-0.000003	0.000000	-0.000003	0.000000	39.301601	595.208656	-30.167617	0.617870	0.000000	-0.399853	0.000000	3.025409	0.000000
3.997917	-0.000043	0.000322	-0.000026	0.000001	0.000000	-0.000000	0.000000	-0.000004	0.000000	40.033649	596.243461	-30.207846	0.616643	0.000000	-0.399860	0.000000	3.016717	0.000000
3.998958	-0.000052	0.000386	-0.000031	-0.000006	-0.000000	0.000003	0.000000	-0.000004	0.000000	40.771901	597.279818	-30.244992	0.615415	0.000000	-0.399870	0.000000	3.007802	0.000000
4.000000	-0.000062	0.000463	-0.000037	-0.000013	-0.000000	0.000006	0.000000	-0.000005	0.000000	41.516473	598.316996	-30.278953	0.614185	0.000000	-0.399883	0.000000	2.998720	0.000000
4.001042	-0.000075	0.000555	-0.000044	-0.000021	-0.000000	0.000010	0.000000	-0.000006	0.000000	42.267435	599.354292	-30.309639	0.612954	0.000000	-0.399898	0.000000	2.989523	0.000000
4.002083	-0.000091	0.000666	-0.000053	-0.000028	-0.000000	0.000013	0.000000	-0.000008	0.000000	43.024810	600.391026	-30.336977	0.611722	0.000000	-0.399917	0.000000	2.980262	0.000000
4.003125	-0.000109	0.000798	-0.000063	-0.000034	-0.000000	0.000016	0.000000	-0.000009	0.000000	43.788575	601.426545	-30.360901	0.610490	0.000000	-0.399937	0.000000	2.970985	0.000000
4.004167	-0.000130	0.000955	-0.000076	-0.000038	-0.000000	0.000018	0.000000	-0.000011	0.000000	44.558658	602.460220	-30.381363	0.609258	0.000000	-0.399961	0.000000	2.961735	0.000000
4.005208	-0.000155	0.001142	-0.000090	-0.000038	-0.000000	0.000018	0.000000	-0.000013	0.000000	45.334939	603.491451	-30.398329	0.608026	0.000000	-0.399987	0.000000	2.952551	0.000000
4.006250	-0.000183	0.001364	-0.000108	-0.000033	-0.000000	0.000016	0.000000	-0.000015	0.000000	46.117255	604.519661	-30.411774	0.606795	0.000000	-0.400015	0.000000	2.943468	0.000000
4.007292	-0.000216	0.001627	-0.000129	-0.000024	-0.000000	0.000011	0.000000	-0.000018	0.000000	46.905399	605.544300	-30.421689	0.605565	0.000000	-0.400045	0.000000	2.934516	0.000000
4.008333	-0.000255	0.001939	-0.000153	-0.000008	-0.000000	0.000004	0.000000	-0.000022	0.000000	47.699124	606.564840	-30.428076	0.604336	0.000000	-0.400078	0.000000	2.925719	0.000000
4.009375	-0.000299	0.002308	-0.000183	0.000012	0.000000	-0.000006	0.000000	-0.000026	0.000000	48.498148	607.580777	-30.430946	0.603109	0.000000	-0.400112	0.000000	2.917099	0.000000
4.010417	-0.000352	0.002745	-0.000217	0.000037	0.000000	-0.000018	0.000000	-0.000031	0.000000	49.302156	608.591627	-30.430321	0.601885	0.000000	-0.400148	0.000000	2.908669	0.000000
4.011458	-0.000413	0.003262	-0.000258	0.000064	0.000000	-0.000031	0.000000	-0.000037	0.000000	50.110806	609.596926	-30.426231	0.600663	0.000000	-0.400185	0.000000	2.900439	0.000000
4.012500	-0.000486	0.003876	-0.000307	0.000091	0.000000	-0.000044	0.000000	-0.000044	0.000000	50.923735	610.596231	-30.418713	0.599445	0.000000	-0.400224	0.000000	2.892415	0.000000
4.013542	-0.000572	0.004602	-0.000365	0.000115	0.000000	-0.000056	0.000000	-0.000052	0.000000	51.740560	611.589110	-30.407808	0.598230	0.000000	-0.400264	0.000000	2.884597	0.000000
4.014583	-0.000674	0.005464	-0.000433	0.000132	0.000000	-0.000064	0.000000	-0.000062	0.000000	52.560889	612.575151	-30.393565	0.597019	0.000000	-0.400305	0.000000	2.876979	0.000000
